# xmcd CD database file
#
# Track frame offsets:
#	150
#	15278
#	30518
#	53094
#	75922
#	98217
#	123277
#	144008
#	172905
#	186965
#
# Disc length: 2656 seconds
#
# Revision: 0
# Processed by: cddbd v1.5.2PL0 Copyright (c) Steve Scherf et al.
# Submitted via: CDex 1.70beta2
#
DISCID=650a5e0a
DTITLE=Saxiano - Jazz To Groove
DYEAR=1900
DGENRE=Jazz
TTITLE0=chucho
TTITLE1=on the sunny side of the street
TTITLE2=blue monk
TTITLE3=chan chan
TTITLE4=morning dance
TTITLE5=killing me softly
TTITLE6=norwegian wood
TTITLE7=waltz for debbie
TTITLE8=ifeel good
TTITLE9=wonderful world
EXTD=
EXTT0=
EXTT1=
EXTT2=
EXTT3=
EXTT4=
EXTT5=
EXTT6=
EXTT7=
EXTT8=
EXTT9=
PLAYORDER=
